<?xml version="1.0" encoding="UTF-8"?>
<svg width="152px" height="48px" viewBox="0 0 152 48" version="1.1" xmlns="http://www.w3.org/2000/svg" xmlns:xlink="http://www.w3.org/1999/xlink">
    <title>logo</title>
    <defs>
        <path d="M15.977,35.875 L12.094,35.875 C12.787,38.053 14.217,39.549 16.604,40.154 C16.406,40.319 16.153,40.682 16.032,40.913 C13.777,40.253 12.391,38.856 11.577,36.777 C11.115,38.339 9.938,39.835 7.045,40.847 C6.946,40.649 6.704,40.308 6.517,40.154 C9.641,39.098 10.609,37.47 10.895,35.875 L7.034,35.875 L7.034,35.05 L10.994,35.05 C11.005,34.841 11.005,34.632 11.005,34.434 L11.005,32.498 L6.704,32.498 L6.704,31.662 L16.263,31.662 L16.263,32.498 L11.852,32.498 L11.852,34.445 C11.852,34.643 11.852,34.841 11.841,35.05 L15.977,35.05 L15.977,35.875 Z M27.7300769,32.487 L25.7060769,32.487 C25.9480769,33.015 26.2780769,33.477 26.6960769,33.884 C27.1470769,33.51 27.4990769,33.048 27.7300769,32.487 Z M29.1490769,32.487 L28.5220769,32.487 C28.2360769,33.246 27.7850769,33.851 27.2240769,34.335 C27.8070769,34.753 28.5110769,35.05 29.2920769,35.226 C29.1380769,35.391 28.9400769,35.666 28.8300769,35.875 C27.9940769,35.633 27.2680769,35.259 26.6520769,34.753 C26.0360769,35.16 25.3100769,35.468 24.5070769,35.71 C24.4300769,35.545 24.2100769,35.248 24.0780769,35.094 C24.8590769,34.907 25.5630769,34.643 26.1570769,34.28 C25.8380769,33.917 25.5520769,33.532 25.3320769,33.092 C25.1340769,33.389 24.9360769,33.642 24.7270769,33.862 C24.5950769,33.741 24.3200769,33.51 24.1550769,33.411 C24.8370769,32.773 25.3650769,31.794 25.6510769,30.771 L26.3440769,30.925 C26.2450769,31.233 26.1350769,31.552 26.0140769,31.849 L29.1490769,31.849 L29.1490769,32.487 Z M22.0210769,34.093 L20.7560769,34.093 L20.7560769,34.731 L22.0210769,34.731 L22.0210769,34.093 Z M20.3820769,32.278 L20.6460769,32.322 L20.6460769,31.915 L19.3810769,31.915 L19.3810769,31.354 L20.6460769,31.354 L20.6460769,30.804 L21.3390769,30.804 L21.3390769,31.354 L22.5160769,31.354 L22.5160769,30.804 L23.2200769,30.804 L23.2200769,31.354 L24.4850769,31.354 L24.4850769,31.915 L23.2200769,31.915 L23.2200769,32.388 L22.5160769,32.388 L22.5160769,31.915 L21.3390769,31.915 L21.3390769,32.377 L21.0200769,32.377 C20.9870769,32.487 20.9430769,32.608 20.8880769,32.718 L24.1440769,32.718 C24.1440769,32.718 24.1440769,32.905 24.1330769,32.993 C24.0450769,34.709 23.9460769,35.336 23.7480769,35.578 C23.5940769,35.743 23.4180769,35.809 23.1760769,35.831 C22.9670769,35.842 22.5820769,35.842 22.2080769,35.809 C22.1970769,35.633 22.1310769,35.402 22.0430769,35.248 C22.4060769,35.281 22.7470769,35.292 22.8680769,35.292 C23.0000769,35.292 23.0770769,35.27 23.1430769,35.193 C23.2750769,35.039 23.3520769,34.533 23.4180769,33.213 L20.6350769,33.213 C20.5470769,33.367 20.4590769,33.499 20.3600769,33.642 L22.6260769,33.642 L22.6260769,35.182 L20.7560769,35.182 L20.7560769,35.534 L20.1620769,35.534 L20.1620769,33.895 C20.0410769,34.038 19.9090769,34.181 19.7770769,34.324 C19.6560769,34.17 19.4470769,33.961 19.3040769,33.873 C19.8320769,33.411 20.1840769,32.795 20.3820769,32.278 Z M24.6940769,37.998 L24.6940769,38.691 L29.1490769,38.691 L29.1490769,39.307 L24.6940769,39.307 L24.6940769,40.011 C24.6940769,40.44 24.5950769,40.616 24.2650769,40.737 C23.9570769,40.836 23.4510769,40.847 22.6590769,40.847 C22.6040769,40.638 22.4830769,40.363 22.3730769,40.176 C22.9560769,40.187 23.5390769,40.187 23.6820769,40.187 C23.8360769,40.176 23.8910769,40.132 23.8910769,40 L23.8910769,39.307 L19.4470769,39.307 L19.4470769,38.691 L23.8910769,38.691 L23.8910769,37.998 L20.1620769,37.998 L20.1620769,37.404 L23.8910769,37.404 L23.8910769,36.722 C22.7800769,36.777 21.6360769,36.788 20.6020769,36.788 C20.5910769,36.634 20.5140769,36.392 20.4480769,36.249 C22.7910769,36.227 25.6950769,36.095 27.2240769,35.853 L27.7300769,36.37 C26.9050769,36.513 25.8380769,36.612 24.6940769,36.678 L24.6940769,37.404 L28.5110769,37.404 L28.5110769,37.998 L24.6940769,37.998 Z M32.1461538,40.187 L32.0031538,39.395 C32.9821538,39.241 34.4671538,38.955 35.9081538,38.669 L35.9741538,39.395 L32.1461538,40.187 Z M36.5791538,39.109 L37.0631538,38.526 C38.5261538,38.911 40.3411538,39.637 41.3421538,40.187 L40.8691538,40.836 C39.8681538,40.253 38.0641538,39.505 36.5791538,39.109 Z M37.7781538,37.085 L38.2621538,36.568 C39.0541538,36.854 40.0221538,37.371 40.5501538,37.756 L40.0551538,38.317 C39.5491538,37.932 38.5701538,37.393 37.7781538,37.085 Z M37.8551538,32.663 L37.8111538,32.718 C38.1411538,33.279 38.5701538,33.829 39.0651538,34.324 C39.5711538,33.829 40.0111538,33.268 40.3411538,32.663 L37.8551538,32.663 Z M40.9241538,31.904 L41.4411538,32.212 C41.0011538,33.213 40.3741538,34.082 39.6261538,34.83 C40.4181538,35.501 41.3421538,36.04 42.2771538,36.37 C42.0791538,36.524 41.8591538,36.832 41.7271538,37.041 C40.7811538,36.667 39.8681538,36.073 39.0651538,35.347 C38.2071538,36.073 37.2391538,36.634 36.2821538,37.03 C36.1831538,36.832 35.9411538,36.513 35.7651538,36.37 C36.7331538,36.018 37.6791538,35.479 38.5151538,34.808 C38.0751538,34.346 37.6791538,33.851 37.3491538,33.323 C37.0301538,33.719 36.6451538,34.093 36.2271538,34.456 C36.0951538,34.269 35.8421538,34.016 35.6441538,33.917 C34.9731538,35.006 34.2031538,36.062 33.4001538,36.931 L35.7101538,36.612 C35.7101538,36.832 35.7211538,37.151 35.7431538,37.305 C32.9161538,37.756 32.5421538,37.833 32.3001538,37.954 C32.2561538,37.789 32.1351538,37.415 32.0471538,37.217 C32.2781538,37.173 32.5421538,36.898 32.8831538,36.513 C33.0921538,36.293 33.5321538,35.743 34.0051538,35.05 C32.6521538,35.204 32.3881538,35.259 32.2341538,35.336 C32.1901538,35.16 32.0581538,34.775 31.9591538,34.566 C32.1571538,34.522 32.3441538,34.258 32.5861538,33.884 C32.8281538,33.521 33.6311538,32.113 34.0931538,30.782 L34.8741538,31.112 C34.3791538,32.3 33.7191538,33.51 33.0591538,34.467 L34.4781538,34.335 C34.7311538,33.961 34.9621538,33.543 35.1821538,33.147 L35.8641538,33.554 L35.6661538,33.873 C36.7991538,32.971 37.5691538,31.772 37.9761538,30.793 L38.8231538,30.936 C38.6801538,31.266 38.5041538,31.607 38.3061538,31.948 L40.7811538,31.948 L40.9241538,31.904 Z M54.5252307,31.354 L54.5252307,33.972 L49.0032307,33.972 L49.0032307,31.354 L49.7512307,31.354 L49.7512307,33.246 L51.2582307,33.246 L51.2582307,30.826 L52.0502307,30.826 L52.0502307,33.246 L53.7442307,33.246 L53.7442307,31.354 L54.5252307,31.354 Z M48.4312307,33.004 L48.4312307,33.741 L44.9772307,33.741 L44.9772307,33.004 L46.3522307,33.004 L46.3522307,30.947 L47.1002307,30.947 L47.1002307,33.004 L48.4312307,33.004 Z M46.3192307,37.712 L45.6482307,37.833 C45.6372307,36.876 45.4612307,35.413 45.2302307,34.28 L45.8462307,34.17 C46.1102307,35.303 46.2972307,36.744 46.3192307,37.712 Z M47.4412307,38.053 L48.6402307,37.778 L48.7172307,38.482 C47.4082307,38.823 46.0222307,39.164 44.9772307,39.428 L44.7792307,38.614 C45.3732307,38.504 46.1432307,38.339 46.9792307,38.152 L46.8032307,38.097 C47.0342307,37.063 47.2982307,35.303 47.4082307,34.093 L48.1452307,34.269 C47.9472307,35.468 47.6832307,37.019 47.4412307,38.053 Z M54.8442307,35.49 L52.0942307,35.49 C51.9732307,35.842 51.8742307,36.194 51.7752307,36.513 L54.6242307,36.513 L54.6242307,40.121 C54.6242307,40.451 54.5582307,40.649 54.3382307,40.759 C54.1072307,40.869 53.7992307,40.88 53.3372307,40.88 C53.3042307,40.693 53.1832307,40.407 53.0842307,40.22 C53.3812307,40.231 53.6672307,40.231 53.7662307,40.231 C53.8542307,40.231 53.8872307,40.198 53.8872307,40.121 L53.8872307,37.217 L52.8752307,37.217 L52.8752307,40.715 L52.2262307,40.715 L52.2262307,37.217 L51.2142307,37.217 L51.2142307,40.715 L50.5652307,40.715 L50.5652307,37.217 L49.5972307,37.217 L49.5972307,40.858 L48.8602307,40.858 L48.8602307,36.513 L50.9722307,36.513 C51.0492307,36.205 51.1262307,35.831 51.1812307,35.49 L48.5192307,35.49 L48.5192307,34.764 L54.8442307,34.764 L54.8442307,35.49 Z M58.9523076,32.718 L58.9523076,34.313 L58.1273076,34.313 L58.1273076,31.959 L62.1973076,31.959 L62.1973076,30.793 L63.0443076,30.793 L63.0443076,31.959 L67.2353076,31.959 L67.2353076,34.313 L66.3773076,34.313 L66.3773076,32.718 L58.9523076,32.718 Z M64.5733076,35.754 L61.4273076,35.754 C61.1193076,36.348 60.8113076,36.931 60.5253076,37.459 C61.3393076,37.701 62.2193076,37.998 63.0663076,38.328 C63.7813076,37.69 64.2763076,36.854 64.5733076,35.754 Z M67.4663076,35.754 L65.4973076,35.754 C65.1673076,36.986 64.6283076,37.932 63.8913076,38.658 C65.0573076,39.153 66.1243076,39.67 66.8613076,40.154 L66.3333076,40.858 C65.5853076,40.352 64.4523076,39.769 63.2093076,39.241 C62.0433076,40.077 60.5033076,40.55 58.6113076,40.858 C58.5233076,40.671 58.2483076,40.297 58.0723076,40.121 C59.8323076,39.912 61.2513076,39.538 62.3293076,38.878 C61.6033076,38.592 60.8663076,38.328 60.1623076,38.108 L59.8873076,38.581 L59.0513076,38.361 C59.4693076,37.668 59.9863076,36.722 60.4923076,35.754 L57.8083076,35.754 L57.8083076,34.973 L60.8993076,34.973 C61.2183076,34.346 61.5153076,33.741 61.7683076,33.202 L62.6043076,33.389 C62.3733076,33.884 62.0983076,34.423 61.8233076,34.973 L67.4663076,34.973 L67.4663076,35.754 Z M74.9403845,30.749 L75.7543845,30.749 C76.8983845,32.366 78.8123845,33.961 80.5173845,34.797 C80.3083845,35.006 80.1103845,35.292 79.9673845,35.523 C78.2843845,34.566 76.3923845,32.96 75.3913845,31.585 C74.5113845,32.905 72.7623845,34.522 70.9253845,35.589 C70.8153845,35.391 70.5843845,35.105 70.3973845,34.929 C72.2783845,33.895 74.0933845,32.157 74.9403845,30.749 Z M75.8313845,37.998 L75.8313845,39.802 L80.0773845,39.802 L80.0773845,40.55 L70.8153845,40.55 L70.8153845,39.802 L74.9843845,39.802 L74.9843845,37.998 L71.7173845,37.998 L71.7173845,37.272 L74.9843845,37.272 L74.9843845,35.567 L72.2013845,35.567 L72.2013845,34.83 L78.7133845,34.83 L78.7133845,35.567 L75.8313845,35.567 L75.8313845,37.272 L79.1423845,37.272 L79.1423845,37.998 L75.8313845,37.998 Z M91.1374614,38.757 L85.9894614,38.757 L85.9894614,39.846 L91.1374614,39.846 L91.1374614,38.757 Z M90.4224614,35.82 L85.9894614,35.82 L85.9894614,36.766 L90.4224614,36.766 L90.4224614,35.82 Z M85.9894614,37.393 L85.9894614,38.119 L91.9514614,38.119 L91.9514614,40.814 L91.1374614,40.814 L91.1374614,40.484 L85.9894614,40.484 L85.9894614,40.803 L85.2194614,40.803 L85.2194614,35.182 L91.2364614,35.182 L91.2364614,37.393 L85.9894614,37.393 Z M93.2054614,31.629 L93.2054614,32.3 L90.8184614,32.3 C91.0384614,32.597 91.2584614,32.916 91.3684614,33.169 L90.6534614,33.466 C90.5324614,33.147 90.2244614,32.685 89.9164614,32.3 L89.0364614,32.3 C88.8494614,32.553 88.6404614,32.795 88.4314614,33.015 L88.5744614,33.015 L88.5744614,33.862 L92.8424614,33.862 L92.8424614,35.941 L92.0504614,35.941 L92.0504614,34.522 L84.4164614,34.522 L84.4164614,35.941 L83.6464614,35.941 L83.6464614,33.862 L87.7934614,33.862 L87.7934614,33.312 C87.6394614,33.18 87.4414614,33.048 87.3094614,32.971 C87.5734614,32.784 87.8154614,32.553 88.0464614,32.3 L86.0664614,32.3 C86.2534614,32.619 86.4184614,32.96 86.5064614,33.202 L85.7804614,33.455 C85.6814614,33.147 85.4724614,32.685 85.2524614,32.3 L84.8014614,32.3 C84.4934614,32.773 84.1414614,33.213 83.8004614,33.543 C83.6574614,33.411 83.3494614,33.18 83.1514614,33.059 C83.8224614,32.487 84.4054614,31.618 84.7464614,30.749 L85.5164614,30.958 C85.4174614,31.178 85.3184614,31.409 85.1974614,31.629 L88.0794614,31.629 L88.0794614,32.267 C88.4754614,31.816 88.8054614,31.299 89.0254614,30.749 L89.8064614,30.947 C89.7074614,31.178 89.5974614,31.409 89.4654614,31.629 L93.2054614,31.629 Z M99.3925383,37.789 L99.5355383,38.57 C98.3585383,38.966 97.1045383,39.395 96.1255383,39.714 L95.9385383,38.889 C96.3455383,38.768 96.8515383,38.614 97.4125383,38.427 L97.4125383,35.468 L96.1585383,35.468 L96.1585383,34.698 L97.4125383,34.698 L97.4125383,32.311 L96.0485383,32.311 L96.0485383,31.541 L99.4585383,31.541 L99.4585383,32.311 L98.1935383,32.311 L98.1935383,34.698 L99.3045383,34.698 L99.3045383,35.468 L98.1935383,35.468 L98.1935383,38.185 L99.3925383,37.789 Z M100.745538,34.071 L100.745538,35.479 L102.417538,35.479 L102.417538,34.071 L100.745538,34.071 Z M100.745538,32.014 L100.745538,33.4 L102.417538,33.4 L102.417538,32.014 L100.745538,32.014 Z M104.804538,33.4 L104.804538,32.014 L103.121538,32.014 L103.121538,33.4 L104.804538,33.4 Z M104.804538,35.479 L104.804538,34.071 L103.121538,34.071 L103.121538,35.479 L104.804538,35.479 Z M103.187538,39.736 L106.102538,39.736 L106.102538,40.484 L99.0185383,40.484 L99.0185383,39.736 L102.362538,39.736 L102.362538,38.229 L99.8655383,38.229 L99.8655383,37.481 L102.362538,37.481 L102.362538,36.194 L99.9975383,36.194 L99.9975383,31.299 L105.585538,31.299 L105.585538,36.194 L103.187538,36.194 L103.187538,37.481 L105.750538,37.481 L105.750538,38.229 L103.187538,38.229 L103.187538,39.736 Z M111.266615,37.888 L112.091615,38.185 C111.365615,39.12 110.309615,40.088 109.407615,40.693 C109.253615,40.528 108.912615,40.231 108.703615,40.099 C109.649615,39.56 110.639615,38.713 111.266615,37.888 Z M118.801615,37.536 L118.086615,38.042 C117.910615,37.778 117.646615,37.47 117.349615,37.151 C116.293615,37.184 115.226615,37.217 114.181615,37.25 L114.181615,40.836 L113.334615,40.836 L113.334615,37.272 C111.695615,37.316 110.188615,37.36 109.011615,37.382 L108.934615,36.546 C109.616615,36.546 110.430615,36.535 111.321615,36.524 C111.618615,36.304 111.926615,36.062 112.245615,35.798 C111.618615,35.204 110.606615,34.456 109.748615,33.95 L110.309615,33.444 C110.540615,33.576 110.793615,33.73 111.035615,33.884 C111.519615,33.411 112.069615,32.806 112.487615,32.256 C111.475615,32.322 110.463615,32.366 109.506615,32.388 C109.484615,32.168 109.385615,31.849 109.308615,31.651 C112.113615,31.574 115.468615,31.332 117.327615,30.958 L117.921615,31.64 C116.678615,31.893 115.061615,32.069 113.378615,32.19 L113.532615,32.289 C112.971615,32.96 112.256615,33.719 111.629615,34.28 C112.102615,34.61 112.553615,34.951 112.894615,35.259 C113.895615,34.379 114.907615,33.4 115.611615,32.586 L116.370615,33.026 C115.259615,34.17 113.796615,35.501 112.487615,36.502 C113.807615,36.48 115.237615,36.447 116.645615,36.425 C116.238615,36.04 115.820615,35.655 115.435615,35.336 L116.095615,34.896 C117.052615,35.677 118.240615,36.788 118.801615,37.536 Z M115.325615,38.284 L115.974615,37.822 C116.898615,38.482 118.108615,39.439 118.713615,40.077 L118.009615,40.616 C117.448615,39.978 116.260615,38.977 115.325615,38.284 Z M131.478692,36.018 L130.796692,36.414 C130.686692,36.183 130.532692,35.908 130.356692,35.611 C126.385692,35.985 125.923692,36.04 125.626692,36.172 C125.582692,35.974 125.428692,35.545 125.351692,35.38 C125.549692,35.325 125.835692,35.248 126.033692,35.039 C126.286692,34.808 127.067692,33.807 127.551692,33.125 L125.571692,33.125 L125.571692,32.388 L128.222692,32.388 C128.112692,32.014 127.837692,31.42 127.628692,30.98 L128.376692,30.771 C128.618692,31.211 128.904692,31.816 129.036692,32.168 L128.343692,32.388 L131.467692,32.388 L131.467692,33.125 L128.508692,33.125 C128.046692,33.774 127.419692,34.621 126.935692,35.215 L129.949692,34.962 C129.718692,34.61 129.465692,34.247 129.223692,33.928 L129.861692,33.609 C130.444692,34.379 131.159692,35.402 131.478692,36.018 Z M123.085692,36.821 L125.142692,36.414 C125.120692,36.634 125.131692,36.964 125.164692,37.129 C122.447692,37.723 122.084692,37.833 121.853692,37.976 C121.809692,37.811 121.677692,37.415 121.589692,37.195 C121.809692,37.14 122.073692,36.876 122.414692,36.469 C122.612692,36.26 123.041692,35.71 123.503692,35.028 C122.194692,35.215 121.941692,35.27 121.776692,35.358 C121.732692,35.171 121.589692,34.753 121.490692,34.511 C121.688692,34.467 121.897692,34.214 122.128692,33.851 C122.392692,33.488 123.206692,32.08 123.679692,30.76 L124.515692,31.145 C123.998692,32.289 123.338692,33.477 122.667692,34.423 L123.998692,34.28 C124.251692,33.895 124.482692,33.477 124.691692,33.081 L125.417692,33.51 C124.735692,34.698 123.910692,35.864 123.085692,36.821 Z M125.131692,38.361 L125.263692,39.076 C124.042692,39.472 122.755692,39.879 121.776692,40.198 L121.589692,39.384 C122.469692,39.153 123.811692,38.757 125.131692,38.361 Z M126.704692,36.139 L127.507692,36.139 C127.419692,38.603 127.078692,40 125.087692,40.803 C124.999692,40.605 124.779692,40.286 124.592692,40.154 C126.374692,39.483 126.627692,38.306 126.704692,36.139 Z M129.828692,39.912 L130.576692,39.912 C130.807692,39.912 130.851692,39.703 130.884692,38.394 C131.049692,38.548 131.379692,38.669 131.588692,38.724 C131.522692,40.22 131.335692,40.616 130.664692,40.616 L129.707692,40.616 C128.937692,40.616 128.750692,40.374 128.750692,39.582 L128.750692,36.128 L129.553692,36.128 L129.553692,39.582 C129.553692,39.868 129.586692,39.912 129.828692,39.912 Z" id="path-1"></path>
        <filter x="-4.0%" y="-39.4%" width="108.0%" height="198.4%" filterUnits="objectBoundingBox" id="filter-2">
            <feOffset dx="0" dy="1" in="SourceAlpha" result="shadowOffsetOuter1"></feOffset>
            <feGaussianBlur stdDeviation="1.5" in="shadowOffsetOuter1" result="shadowBlurOuter1"></feGaussianBlur>
            <feColorMatrix values="0 0 0 0 0   0 0 0 0 0   0 0 0 0 0  0 0 0 0.2 0" type="matrix" in="shadowBlurOuter1"></feColorMatrix>
        </filter>
        <path d="M123.797199,9.25908101 L127.186915,9.25908101 L127.186915,11.3539701 L132.16128,11.3539701 L132.16128,13.1600205 L118.642479,13.1600205 L118.642479,11.3539701 L123.797199,11.3539701 L123.797199,9.25908101 Z M119.819641,15.9118443 L119.819641,14.1057938 L130.984392,14.1057938 L130.984392,15.9118443 L119.819641,15.9118443 Z M119.819641,18.7275206 L119.819641,16.9216242 L130.984392,16.9216242 L130.984392,18.7275206 L119.819641,18.7275206 Z M122.830978,24.9530337 L127.973055,24.9530337 L127.973055,21.8177092 L122.830978,21.8177092 L122.830978,24.9530337 Z M119.573481,26.7592382 L119.573481,20.0115048 L131.230247,20.0115048 L131.230247,26.7592382 L119.573481,26.7592382 Z M114.813454,27.2359991 L114.734701,16.3989264 C114.24086,16.7897444 113.726301,17.1357346 113.201233,17.4254975 L111.784294,14.3098911 C113.843897,13.1968994 115.553759,10.9852425 116.007996,9.27316093 L119.140738,9.27316093 C118.978663,10.3644319 118.589317,11.449387 118.038505,12.4711827 L118.038505,27.2359991 L114.813454,27.2359991 Z M94.2396014,13.04296 L94.2396014,14.9143264 L90.9240684,14.9143264 L90.9240684,13.04296 L90.9240684,11.4866202 L90.9240684,11.0642226 L98.4637604,11.0642226 L98.4637604,9.25909642 L101.943349,9.25909642 L101.943349,11.0642226 L109.483498,11.0642226 L109.483498,11.4866202 L109.483498,13.04296 L109.483498,14.9143264 L106.16766,14.9143264 L106.16766,13.04296 L94.2396014,13.04296 Z M97.5071668,20.528318 C98.6235659,20.7707885 99.7515417,21.0737995 100.865504,21.4351944 C101.896295,20.5389473 102.694028,19.4318094 103.145827,18.0806606 L98.9941756,18.0806606 C98.5271434,18.9662785 98.0202016,19.8044498 97.5071668,20.528318 Z M104.204342,22.730424 C106.132336,23.6123447 107.926282,24.6919082 109.42502,25.9778949 L106.401344,27.8192222 C105.259202,26.7998913 103.601587,25.7822549 101.772911,24.8525795 C99.4564858,26.339598 96.4887136,27.1164584 92.9375319,27.6502323 L91.6087901,24.6929865 C93.8217857,24.5166023 96.1028712,24.04645 98.0724495,23.1709993 C96.3447653,22.4668491 94.6591231,21.8814694 93.2706694,21.4807924 C94.0045772,20.4600751 94.7316304,19.2897778 95.406131,18.0806606 L90.5274261,18.0806606 L90.5274261,16.1019232 L96.4466715,16.1019232 C96.866178,15.2537388 97.2477553,14.4155675 97.5757137,13.6243807 L100.820415,13.6243807 C100.597866,14.4147973 100.292605,15.2578981 99.9340285,16.1019232 L109.879561,16.1019232 L109.879561,18.0806606 L106.614296,18.0806606 C106.045053,19.9873039 105.237571,21.5080588 104.204342,22.730424 Z M72.8481683,16.1014919 L82.8509756,16.1014919 C81.0710435,15.3089186 78.8921689,14.508951 76.949857,13.8856757 C75.9661341,14.9011554 74.6294714,15.5983734 72.8481683,16.1014919 Z M72.6809141,23.5472136 L76.8692764,23.5472136 L76.8692764,21.1240497 L72.6809141,21.1240497 L72.6809141,23.5472136 Z M85.6790646,14.1834491 L84.6694463,16.1014919 L87.6954071,16.1014919 L87.6954071,18.1142738 L85.6751041,18.1142738 L85.6751041,24.7698869 C85.692774,26.4003234 85.4760137,27.9277023 83.2998811,28.1071674 L80.5010387,28.3383923 L79.556159,25.581408 L69.7571642,25.581408 L69.7571642,19.0900093 L79.7502226,19.0900093 L79.7502226,25.3897732 L80.8718008,25.3363188 C82.0808141,25.252363 82.1417446,24.8724824 82.1417446,23.7528667 L82.1417446,18.1142738 L67.7246751,18.1142738 L67.7246751,16.1014919 L70.298227,16.1014919 L69.0206668,14.2250419 C70.9670915,13.912634 72.6406999,13.4521866 73.834176,12.5457724 L68.4102956,12.5457724 L68.4102956,10.5334526 L75.3563722,10.5334526 C75.5333753,10.0782429 75.6566072,9.56773016 75.7182993,8.99174735 L79.0719139,8.99174735 C78.9858496,9.54400688 78.8775456,10.055752 78.7473067,10.5334526 L87.0100913,10.5334526 L87.0100913,12.5457724 L80.3263205,12.5457724 C82.0712176,12.9145616 84.2599934,13.6185577 85.6790646,14.1834491 Z" id="path-3"></path>
        <filter x="-7.8%" y="-20.7%" width="115.5%" height="151.7%" filterUnits="objectBoundingBox" id="filter-4">
            <feOffset dx="0" dy="1" in="SourceAlpha" result="shadowOffsetOuter1"></feOffset>
            <feGaussianBlur stdDeviation="1.5" in="shadowOffsetOuter1" result="shadowBlurOuter1"></feGaussianBlur>
            <feColorMatrix values="0 0 0 0 0   0 0 0 0 0   0 0 0 0 0  0 0 0 0.2 0" type="matrix" in="shadowBlurOuter1"></feColorMatrix>
        </filter>
    </defs>
    <g id="152*485天擎-copy" stroke="none" stroke-width="1" fill="none" fill-rule="evenodd">
        <rect id="矩形" fill="#0C2537" fill-rule="nonzero" opacity="0" x="0" y="0" width="152" height="48"></rect>
        <g id="天擎终端安全管理系统-copy" transform="translate(10.000000, 3.000000)">
            <g id="天-擎-终-端-安-全-管-理-系-统-copy">
                <use fill="black" fill-opacity="1" filter="url(#filter-2)" xlink:href="#path-1"></use>
                <use fill="#FFFFFF" fill-rule="evenodd" xlink:href="#path-1"></use>
            </g>
            <g id="奇安信">
                <use fill="black" fill-opacity="1" filter="url(#filter-4)" xlink:href="#path-3"></use>
                <use fill="#FFFFFF" fill-rule="evenodd" xlink:href="#path-3"></use>
            </g>
            <path d="M38.7875011,11.9324627 C38.8702555,12.0106054 38.9084871,12.086138 38.9155849,12.1845098 C38.9938226,13.2881334 39.0536703,14.4085602 39.0933537,15.5146309 C39.0967413,15.6061509 39.0659302,15.6802153 38.9968875,15.7477541 C38.9234894,15.818882 38.8326692,15.852162 38.7031335,15.852162 C38.7029722,15.852162 38.6189273,15.8511831 38.6189273,15.8511831 C38.491166,15.8500412 38.3938933,15.8138247 38.3133973,15.7378027 C38.2341918,15.6627596 38.1991865,15.5893478 38.1961215,15.4919549 C38.1616002,14.3800112 38.1094955,13.2522432 38.0415821,12.1398102 C38.0356134,12.0450274 38.0614238,11.9758572 38.1280467,11.9075027 C38.1916047,11.8415952 38.272746,11.8109254 38.3837305,11.8109254 L38.4819711,11.8132093 C38.6086031,11.8169615 38.7057146,11.8549725 38.7875011,11.9324627 Z M19.9458991,13.0880456 C19.8255584,13.0880456 19.7373193,13.0555812 19.6684379,12.9860848 C19.5998792,12.9165883 19.5729396,12.842524 19.5810054,12.7457836 C19.6765036,11.6088799 19.8000707,10.4564782 19.9483189,9.32039024 C19.9620306,9.2164718 20.0101024,9.12886708 20.0999546,9.04501452 L20.1159248,9.03016903 C20.3520895,9.20913062 20.5845439,9.38303496 20.8119976,9.5504138 L20.8039319,9.62333616 C20.6831072,10.7121143 20.5890607,11.7155717 20.5166304,12.6909694 C20.5088873,12.7932565 20.4653324,12.878251 20.3799969,12.9580252 C20.2896607,13.0413883 20.1848062,13.0818464 20.0502697,13.0855985 L19.9458991,13.0880456 Z M26.8642337,12.2157179 L26.996673,12.2142497 C27.2063821,12.2142497 27.3649544,12.2755893 27.4961033,12.407078 C27.6269295,12.5392192 27.6864546,12.6842482 27.683067,12.8633729 C27.6524172,14.5174217 27.6340273,16.1920258 27.6287039,17.840528 C27.6280587,18.0196527 27.5635328,18.1656606 27.4260927,18.29927 C27.2851037,18.4345108 27.108948,18.500092 26.8876243,18.500092 L26.7637347,18.5002551 C26.5446693,18.5002551 26.3641582,18.4332057 26.2270407,18.3005751 C26.0900846,18.168597 26.0268492,18.0237311 26.0278171,17.8446064 C26.0371734,16.200509 26.0683071,14.5322672 26.1204117,12.8865384 C26.1260578,12.7062717 26.1942939,12.5586325 26.3346376,12.4222497 C26.4778851,12.2832568 26.6459749,12.2178387 26.8642337,12.2157179 Z M43.7053885,16.5381542 C43.8108883,16.6345683 43.8620251,16.7376711 43.8663806,16.8627974 C43.9113874,18.1582705 43.9139684,19.472178 43.8736397,20.7678143 C43.8699295,20.8924511 43.8192767,20.9953908 43.7142609,21.0916418 C43.6044056,21.1924606 43.4735794,21.2407492 43.3024245,21.2431963 L43.1903108,21.2446645 C43.0285122,21.2446645 42.9076875,21.2011069 42.8100921,21.1071398 C42.7149165,21.0159461 42.6723294,20.9152904 42.675717,20.7903272 C42.7116902,19.4788667 42.7094318,18.1489716 42.6689418,16.8375111 C42.6652315,16.7133636 42.707496,16.6128711 42.8020264,16.5213511 C42.8989765,16.4280365 43.0188333,16.3844789 43.1788575,16.3844789 L43.2935522,16.3861103 C43.4606742,16.388231 43.5955333,16.4379879 43.7053885,16.5381542 Z M45.312002,20.5779388 C45.3476526,19.4090602 45.3452328,18.2233785 45.3045815,17.053358 C45.2829654,16.4332732 45.078741,15.9438614 44.6975544,15.5989892 C44.3260467,15.2627633 43.837102,15.0857594 43.2453998,15.0735241 L43.0840851,15.0709139 C42.5167414,15.0709139 42.0628019,15.2333986 41.7354944,15.5534739 C41.3920555,15.8870896 41.226224,16.3813956 41.2425168,17.0230145 C41.2725213,18.2122852 41.2742958,19.4172171 41.2478402,20.6045302 C41.2338058,21.2391342 41.4028636,21.7318087 41.7503354,22.0688503 C42.0840954,22.3936567 42.5385189,22.5582622 43.1007005,22.5582622 L43.257821,22.5558151 C43.842748,22.5447218 44.3299183,22.3669021 44.7056202,22.0270872 C45.0892264,21.6791154 45.2931282,21.1916612 45.312002,20.5779388 Z M39.9421592,16.6244701 C40.2497863,16.3259289 40.394163,15.9001406 40.3714176,15.3588512 C40.3294758,14.3624087 40.2689828,13.3499788 40.1915517,12.3494579 C40.1494486,11.8086578 39.9634528,11.3807487 39.6387263,11.0771503 C39.3196459,10.7787722 38.9092614,10.6198765 38.4182195,10.605031 C38.4182195,10.605031 38.2915875,10.6020945 38.2688422,10.6020945 C37.806353,10.6020945 37.4361358,10.7425557 37.1689987,11.0195628 C36.8863754,11.3105997 36.757485,11.739977 36.7860377,12.2952963 C36.8383037,13.3036478 36.878955,14.3245608 36.9070237,15.3294864 C36.9225099,15.8766489 37.0902772,16.3063524 37.40597,16.606525 C37.7184365,16.9032717 38.1333378,17.0556419 38.638898,17.0595572 L38.7397197,17.0602098 C39.2385046,17.0602098 39.6429205,16.9137125 39.9421592,16.6244701 Z M31.1151818,21.7381711 L34.7583123,21.7283829 L34.7537955,21.5893899 C34.7487947,21.4355514 34.7471816,21.285302 34.7457298,21.1357051 C34.7436327,20.9463028 34.7415356,20.750538 34.7325019,20.5506949 L34.7265333,20.4216533 L33.7238013,20.4231215 C33.6884734,18.1568185 33.6010408,16.1534928 33.4492437,14.1302644 L33.4398875,14.0069326 L33.3174497,14.0054643 C33.0396658,14.002691 32.7620432,14.0005702 32.4842594,13.9982863 L32.1788907,13.9958392 L30.7828735,14.5983052 L30.7873904,14.6921091 C30.8054576,15.0686299 30.8206212,15.4503712 30.8327198,15.8264026 L30.8388497,16.0198834 L31.0161346,15.9471242 C31.3915138,15.7932857 31.7651186,15.6404261 32.1374328,15.4887084 C32.2101858,17.0373706 32.280035,18.7000656 32.3110074,20.4252423 C32.0712938,20.4257317 31.0796925,20.4257317 31.0796925,20.4257317 L31.0825962,20.5635827 C31.0827575,20.5705976 31.0969532,21.256753 31.110181,21.6078244 L31.1151818,21.7381711 Z M21.3566121,22.2115955 L21.4963106,22.2132268 L21.4914711,22.0719499 C21.4808244,21.7574213 21.4717907,21.4430558 21.464209,21.1282008 L21.4609827,20.997691 L20.6173069,20.9903498 C20.5752038,19.279203 20.5858506,17.5450538 20.6489246,15.8343963 L20.654248,15.6927932 L19.4964926,15.7081281 L19.4729407,15.7179163 C19.0827205,15.8808904 18.692339,16.0430489 18.3019575,16.2045548 L18.2225906,16.2375085 L18.219203,16.3242975 C18.2062979,16.6598709 18.1959737,16.9952811 18.1880693,17.3308545 L18.1832299,17.533471 C18.1832299,17.533471 18.9977076,17.2116012 19.3114647,17.0869643 C19.2800083,18.3795009 19.2817828,19.6867199 19.3169494,20.9781145 L18.2850194,20.9675106 L18.2895362,21.1082981 C18.2993764,21.4200534 18.3116363,21.7316456 18.3256707,22.0432378 L18.331478,22.1699954 L18.4569809,22.1719531 C19.4234171,22.1869617 20.3900146,22.2001758 21.3566121,22.2115955 Z M17.1732387,26.6662218 L17.3251971,26.6668744 L17.3063233,26.5145042 C17.268253,26.2073167 17.2327638,25.9004555 17.199533,25.5934311 L17.1866278,25.4753197 L17.0691907,25.473199 C16.954496,25.4710782 16.8399626,25.4702625 16.7254292,25.4702625 C16.6023461,25.4702625 16.479263,25.4712413 16.3561799,25.4722201 C16.0711369,23.9020239 15.9225661,22.3318276 15.8893352,20.5417223 L15.8869155,20.4100705 L14.7343222,20.4025662 L14.7106089,20.4120282 C14.3279705,20.5626039 13.9464613,20.7120376 13.5657587,20.85984 L13.477197,20.8940988 L13.4802619,20.9900236 C13.4905861,21.3145036 13.5044591,21.6433883 13.5215585,21.9678684 L13.5312374,22.1500927 L13.7007791,22.087448 C14.0084062,21.9737413 14.3168398,21.8590558 14.6260801,21.7435546 C14.6852825,22.9974277 14.828046,24.2211204 15.0609844,25.4727095 L14.5901069,25.472057 C14.4658946,25.472057 14.3420049,25.4722201 14.2177926,25.473199 L14.0661568,25.4741778 L14.0863212,25.6260586 C14.1300374,25.9547802 14.1740763,26.2650673 14.2173087,26.5482736 L14.2347307,26.6626328 L15.2293969,26.6629591 C15.8861089,26.6631222 16.5402399,26.6631222 17.1732387,26.6662218 Z M12.2149097,18.6697221 C13.1934445,18.6307323 14.160042,18.5940264 15.1385768,18.5589519 L15.2797271,18.5538947 L15.2666606,18.4116389 C15.2395597,18.1152185 15.2226217,17.8189612 15.2161691,17.5305345 L15.2132655,17.3930098 C15.2132655,17.3930098 14.5931719,17.4196012 14.3511999,17.4303683 C14.3321647,15.8425532 14.4921889,14.1312432 14.8274008,12.3417904 L14.8604703,12.1662547 L14.684476,12.1822422 C14.3721708,12.2103018 14.0597042,12.2393402 13.747399,12.2693575 L13.724331,12.2714783 L13.7033601,12.2814296 C13.3052355,12.46969 12.9056591,12.657461 12.5047921,12.8445795 L12.4438152,12.8731285 L12.4301034,12.9393623 C12.364771,13.2519333 12.3029875,13.5690721 12.2462047,13.8819694 L12.200714,14.1323851 L12.4310713,14.0297718 C12.7486999,13.888658 13.0655219,13.7473812 13.3816987,13.6056149 C13.1447274,15.0141421 13.044551,16.2880811 13.0761687,17.4879557 C12.7683803,17.5023118 12.0258489,17.5377126 12.0258489,17.5377126 L12.0255262,17.6662647 C12.0250423,17.9204326 12.0413351,18.2008656 12.0769856,18.5486743 L12.0898908,18.6746162 L12.2149097,18.6697221 Z M61.000499,15.3555884 C66.5771472,17.8359275 64.2277603,26.6608383 57.4118928,26.6608383 C52.506475,26.3476147 50.8541288,24.4676208 49.3063146,23.2220677 C47.6534845,23.2225571 43.7114378,28.3290801 43.7114378,28.3290801 L33.9615791,28.3290801 C33.6828274,28.3290801 33.4615037,28.3677436 33.4615037,28.0577828 C33.461181,27.0641136 33.7630008,24.8738326 36.0091463,24.8738326 C38.2551304,24.8738326 38.8326369,24.8723644 39.0175036,24.8723644 C39.2020475,24.8723644 39.4546663,24.70678 39.1599444,24.4950279 C38.2569049,23.8643392 36.4805077,22.7532112 36.8265277,19.6759528 C36.8365292,19.3562038 36.7618405,19.3858947 36.65134,19.6363105 C36.2517635,20.6940925 36.0080171,22.232477 36.9126697,23.3272913 C37.2909526,23.761889 37.4117773,24.01622 36.4050125,24.01622 C36.4050125,24.01622 36.2757994,24.0325337 35.6905498,24.0325337 C33.7284794,24.0325337 32.4203788,25.3379582 31.9814416,26.6270689 C31.7664091,27.1830407 31.5770257,27.5191035 30.9057953,27.5191035 L28.0103583,27.5191035 L28.010197,27.5158408 C27.9543821,25.3886938 27.9188929,23.2692144 27.9043746,21.2161318 L27.903568,21.0823592 L26.3875327,21.0777914 L26.3628516,21.0880691 C25.826319,21.311404 25.2910769,21.5335969 24.7576093,21.7543217 L24.6729191,21.7893962 L24.6745322,21.881895 C24.6834045,22.3290543 24.69389,22.7760504 24.7064725,23.2232097 L24.7117959,23.4153854 L24.8887581,23.3450732 C25.3583451,23.1582811 25.8295453,22.9701838 26.3023586,22.7811077 C26.3304273,24.3439628 26.376402,25.9368351 26.439476,27.5191035 L24.7259916,27.5191035 C24.2349497,27.4988745 24.0183041,27.1557968 23.8645713,26.6606752 C23.6435702,25.9490704 22.9539499,22.8189555 22.964758,24.0940364 C22.9757274,25.3692805 22.9536273,26.0890422 22.9481426,27.0863003 C22.9262038,27.7089953 22.3966077,28.2827491 21.682629,28.3290801 C19.0988519,28.3481671 7.12769021,28.3290801 7.12769021,28.3290801 L7.16914808,27.1611803 C7.19124819,26.2776289 7.66357754,25.4854343 8.38739647,25.1204962 C9.79067279,24.413133 14.6134975,25.3314327 12.9538922,23.475583 C8.75922679,18.7847339 11.1781403,13.8452635 6.86652175,12.7747567 C6.80151194,12.7564854 6.73488898,12.7439238 6.66971785,12.7259787 C5.60536366,12.4334736 4.32065362,12.6006893 3.55150527,12.7535489 L3.55134395,12.7533858 C2.67782501,12.9349575 2.3347087,12.3569622 2.29325083,12.2799614 C1.81963096,11.3761809 2.02917872,10.0922906 2.02917872,10.0922906 C1.50910022,9.53892893 1.13468887,8.86484572 0.884973756,8.14704172 C0.880940889,8.14100564 0.879973001,8.1364378 0.878682484,8.13284878 C0.670425244,7.55403773 0.793185708,6.91372393 0.793347023,6.91307138 C0.793347023,6.91307138 0.283108719,6.24078268 0.164219806,4.86520919 C0.164219806,4.86520919 0.575410903,4.39945228 1.40650409,4.03761381 C2.06999133,3.69633063 2.78977739,3.4397157 3.47568737,3.14623175 L4.15869369,2.06593672 C4.15869369,2.06593672 5.33145134,1.90426768 6.02332997,1.84684336 C6.63229285,1.79627081 7.93458619,1.74423002 7.93458619,1.74423002 C7.93458619,1.74423002 8.52048107,1.3913641 8.93005902,1.04567622 C9.33963697,0.699988333 10.8367984,0.699498921 10.8367984,0.699498921 L10.5901483,1.81405277 L11.0434425,2.18780026 C11.6201425,2.45746618 12.6056138,3.28359333 13.4960708,3.84135967 C14.2181152,4.29373932 16.7518848,6.4225176 19.1827356,8.31295233 C18.9083393,8.61785589 18.7346034,9.01542142 18.6666899,9.49553442 C18.5218294,10.521831 18.3992302,11.5628099 18.3017961,12.5899222 C18.2492076,13.1457309 18.3755169,13.5804917 18.6768528,13.8821326 C18.9614118,14.1676228 19.357762,14.3123255 19.8550951,14.3123255 L19.9926965,14.3098785 C20.5085808,14.2991114 20.9371939,14.1379318 21.2664372,13.8307443 C21.5974549,13.5222517 21.7844186,13.0812917 21.8224888,12.5196101 C21.8660438,11.8791331 21.9210521,11.1995032 21.9946116,10.3895267 C22.4606497,10.7053604 22.8813583,10.968664 23.2293141,11.1520303 C23.6690579,11.3871111 24.2591469,11.558079 24.9360233,11.678148 C24.6780811,12.065599 24.5343498,12.5528901 24.5112818,13.1302329 C24.4522406,14.6157609 24.4156222,16.122823 24.4022331,17.6096561 C24.3952965,18.3742805 24.61291,18.9746257 25.0489436,19.3938885 C25.4791698,19.8072783 26.056515,20.0175623 26.765493,20.0185411 L26.894706,20.0187042 C27.6007803,20.0187042 28.1755445,19.8090728 28.603351,19.3955198 C29.035513,18.9780516 29.2552236,18.3747699 29.2566754,17.6023149 C29.2595791,16.1083038 29.2676448,14.5929217 29.2807113,13.098258 C29.2845829,12.6380477 29.2124752,12.2354249 29.0682599,11.8987096 C30.609299,11.8500947 32.069358,11.6905464 33.0036926,11.5084852 C34.7516984,11.1110828 36.8566935,10.5118796 39.0047597,10.0965321 C41.8213138,9.5514905 43.8124208,9.41282382 46.432655,10.8856271 L45.8807975,11.0947691 L45.8983808,11.2037448 C45.9506468,11.5285511 46.0003317,11.8579253 46.0458224,12.1828947 L46.0688904,12.3470108 L46.2231073,12.2910547 C46.5150868,12.1846892 46.8057759,12.0796288 47.0946904,11.9758735 C47.2908491,13.2250156 47.4357097,14.4885138 47.5258846,15.7366771 C47.231324,15.7299885 46.496697,15.7143273 46.496697,15.7143273 L46.5060532,15.8609877 C46.5255723,16.1637705 46.5420264,16.4665532 46.5557381,16.7694992 L46.5615454,16.89642 L46.6872096,16.8982145 C47.6580013,16.9128968 48.628793,16.9287211 49.5995846,16.9458505 L49.7431547,16.9482976 L49.735089,16.8034317 C49.7189575,16.5045642 49.6989545,16.2037391 49.6762091,15.9091132 L49.6668529,15.787739 L48.8244677,15.7670206 C48.7384869,14.644473 48.6020147,13.4994125 48.420697,12.3585936 C49.5737743,13.4400305 50.4997205,14.720495 51.2172482,15.8161249 C52.2774082,17.4350992 52.9970329,19.6056407 53.9523384,20.6557553 C55.7337363,22.613892 58.9151843,23.167743 60.2303828,21.1862777 C60.6881938,20.4976753 61.2263396,18.1483354 59.2449114,17.8620295 C58.1003839,17.6966083 58.3241273,18.3406742 57.4635135,18.1144028 C56.8453557,17.9519181 56.4652984,17.2789769 56.7303384,16.3096152 C57.2536432,14.9050033 59.6335185,14.6366424 61.000499,15.3555884 Z" id="logo" fill="#FFCD00"></path>
        </g>
    </g>
</svg>